<?xml version="1.0" standalone="no"?>
<!DOCTYPE svg PUBLIC "-//W3C//DTD SVG 20010904//EN"
 "http://www.w3.org/TR/2001/REC-SVG-20010904/DTD/svg10.dtd">
<svg version="1.0" xmlns="http://www.w3.org/2000/svg"
 width="500.000000pt" height="500.000000pt" viewBox="0 0 500.000000 500.000000"
 preserveAspectRatio="xMidYMid meet">

<g transform="translate(0.000000,500.000000) scale(0.100000,-0.100000)"
fill="#000000" stroke="none">
<path d="M2325 4994 c-436 -47 -766 -159 -1090 -372 -384 -251 -678 -581 -870
-977 -355 -730 -350 -1557 15 -2286 115 -231 256 -425 450 -620 356 -357 769
-575 1275 -670 140 -27 500 -37 656 -20 802 93 1513 599 1874 1336 199 405
293 892 256 1327 -66 780 -445 1442 -1076 1879 -284 197 -636 334 -985 384
-111 16 -423 28 -505 19z m405 -219 c275 -32 472 -91 720 -214 541 -270 954
-762 1136 -1355 135 -441 138 -898 9 -1348 -195 -674 -679 -1212 -1322 -1467
-548 -217 -1187 -189 -1716 75 -661 331 -1095 941 -1224 1719 -25 152 -25 502
0 665 124 803 623 1462 1340 1770 184 79 446 145 642 163 102 9 302 6 415 -8z"/>
<path d="M2541 4127 c-32 -10 -48 -24 -132 -113 -54 -57 -63 -81 -63 -159 1
-53 8 -90 32 -154 35 -93 39 -138 18 -179 -25 -48 -48 -59 -164 -81 -154 -30
-205 -51 -314 -129 -51 -37 -138 -99 -193 -137 -169 -116 -271 -202 -290 -242
-17 -35 -17 -42 -2 -129 17 -95 59 -236 121 -409 25 -70 36 -117 36 -157 0
-81 18 -155 45 -186 22 -25 28 -27 128 -29 128 -3 137 3 113 74 -25 72 -23 75
29 67 52 -7 55 -1 20 47 -30 41 -57 63 -108 90 -51 27 -63 60 -82 216 -9 70
-22 168 -30 218 -8 49 -11 92 -7 96 4 3 59 29 122 58 63 28 160 76 214 106 55
30 102 53 104 50 9 -8 -30 -46 -105 -101 -67 -51 -72 -57 -79 -101 -9 -62 -78
-318 -98 -363 -19 -45 -20 -30 -1 134 8 71 12 133 9 137 -3 5 -26 9 -51 9
l-46 0 7 -72 c11 -109 35 -295 42 -311 3 -10 30 -16 85 -21 281 -23 555 -213
685 -474 l39 -80 132 -3 c127 -4 133 -5 174 -34 79 -56 94 -85 230 -451 71
-191 133 -352 137 -356 4 -4 28 -2 53 6 24 8 110 35 192 61 91 28 147 51 147
59 0 36 -52 58 -200 82 -52 8 -98 20 -101 26 -4 6 -16 50 -28 97 -101 424
-174 720 -187 750 -8 20 -29 50 -46 68 -60 62 -132 81 -489 128 -278 37 -291
45 -64 41 293 -6 470 -37 561 -98 70 -47 96 -106 154 -348 27 -113 71 -295 97
-404 l48 -200 95 -17 c52 -9 111 -23 131 -32 33 -13 72 -52 81 -79 4 -12 143
25 153 41 3 5 -5 21 -17 35 -23 26 -45 33 -260 76 -47 9 -57 15 -62 36 -4 14
-34 186 -67 382 -67 402 -71 420 -104 473 -39 61 -86 91 -158 99 -34 4 -82 16
-107 28 -43 19 -207 47 -440 73 -153 17 -154 17 -147 87 3 40 25 103 72 212
37 85 80 193 95 240 24 70 29 79 29 50 1 -19 -10 -82 -23 -140 l-24 -105 36
-69 c20 -38 57 -91 82 -118 l45 -50 -3 177 c-4 195 -1 216 30 247 25 25 26 17
-55 228 -36 94 -47 111 -104 168 l-64 63 20 43 c10 24 23 46 29 50 6 3 38 -1
71 -10 89 -25 102 -16 132 86 21 74 26 83 56 95 l34 14 -17 38 c-30 71 -36 94
-30 116 3 12 1 50 -5 85 -11 62 -11 64 15 91 37 38 50 90 36 142 -9 32 -15 39
-28 34 -41 -17 -104 -16 -195 4 -104 23 -173 25 -226 8z"/>
<path d="M3153 3213 c-103 -17 -153 -29 -153 -38 0 -7 7 -32 15 -56 16 -44 10
-58 -22 -59 -17 0 -16 -13 7 -95 11 -38 20 -75 20 -81 0 -7 -20 -15 -45 -18
-24 -4 -54 -15 -67 -26 -22 -17 -23 -26 -26 -162 -5 -209 -8 -203 162 -305
156 -93 163 -95 286 -63 41 11 84 20 95 20 13 0 42 -27 80 -75 33 -41 66 -74
73 -75 13 0 434 120 441 126 2 2 -24 33 -58 70 -33 37 -61 70 -61 73 0 3 15
13 33 21 49 23 57 49 57 193 0 185 4 179 -169 255 -121 52 -151 62 -200 62
l-58 0 -25 78 c-25 76 -27 78 -98 130 -85 61 -74 60 -287 25z m212 -64 l17
-51 48 7 48 7 31 -93 c17 -51 28 -95 25 -98 -3 -3 -89 -22 -192 -42 -135 -26
-189 -33 -194 -25 -9 14 -98 280 -98 293 0 8 205 45 282 52 11 1 21 -14 33
-50z m550 -329 c3 -5 -14 -14 -37 -20 -24 -6 -59 -15 -78 -20 -19 -5 -78 -18
-130 -29 -185 -39 -365 -81 -393 -93 -41 -16 -47 -36 -47 -157 0 -110 -5 -141
-21 -141 -5 0 -9 55 -9 123 0 166 -5 174 -140 249 -58 31 -109 59 -115 61 -6
3 -6 9 1 16 9 10 39 -2 129 -50 100 -53 125 -62 164 -61 25 1 174 31 331 66
296 66 335 72 345 56z m5 -95 c0 -7 -7 -18 -15 -25 -26 -22 -49 12 -24 37 14
14 39 6 39 -12z m-82 -18 c4 -20 -25 -34 -40 -19 -15 15 -1 44 19 40 10 -2 19
-11 21 -21z m17 -270 c54 -59 96 -109 94 -111 -12 -11 -364 -105 -370 -99 -47
52 -179 215 -181 224 -3 10 321 99 348 95 6 0 55 -50 109 -109z"/>
<path d="M3615 2476 c-49 -12 -102 -26 -117 -29 -28 -7 -39 -27 -15 -27 28 0
257 64 257 71 0 13 -23 10 -125 -15z"/>
<path d="M3635 2425 c-66 -18 -122 -34 -125 -34 -2 -1 0 -5 6 -11 6 -6 48 1
114 19 58 15 118 31 133 35 15 4 25 11 22 16 -8 14 -14 13 -150 -25z"/>
<path d="M3765 2405 c-22 -7 -79 -23 -127 -35 -49 -13 -88 -27 -88 -31 0 -5 7
-9 16 -9 23 0 248 61 257 70 16 14 -18 17 -58 5z"/>
<path d="M3661 2321 c-36 -9 -66 -22 -69 -29 -4 -14 2 -15 48 -3 19 6 54 15
78 21 23 6 40 15 37 20 -8 13 -16 12 -94 -9z"/>
<path d="M1057 3082 c-20 -22 -22 -52 -4 -76 12 -16 32 -19 158 -20 80 -2 151
-6 157 -10 10 -6 71 49 72 64 0 3 -25 18 -55 33 -52 25 -65 27 -184 27 -111 0
-130 -2 -144 -18z"/>
<path d="M1950 2283 c0 -3 9 -18 20 -34 12 -15 24 -47 28 -70 6 -38 11 -43 53
-59 186 -70 334 -229 406 -435 25 -72 27 -93 27 -215 0 -119 -3 -144 -27 -215
-109 -329 -437 -529 -757 -461 -125 26 -230 85 -331 185 -72 72 -94 102 -133
181 -102 209 -103 418 -1 627 54 110 142 211 243 276 l64 41 -6 60 c-3 33 -9
62 -12 65 -10 10 -130 -60 -201 -119 -120 -99 -217 -251 -264 -411 -32 -114
-38 -301 -11 -406 42 -165 97 -270 200 -384 157 -171 354 -259 582 -259 118 0
214 22 325 74 119 57 219 137 295 237 73 97 98 146 136 259 26 78 28 98 28
240 1 178 -9 227 -79 375 -79 168 -200 295 -358 374 -75 37 -227 87 -227 74z"/>
<path d="M1469 1997 c-92 -65 -168 -163 -211 -272 -28 -72 -32 -92 -34 -205
-2 -107 -1 -117 7 -70 20 111 49 211 81 275 40 83 130 182 214 236 35 23 64
44 64 46 0 14 -23 43 -34 43 -8 0 -47 -24 -87 -53z"/>
<path d="M1940 2019 c-22 -52 -46 -61 -164 -57 l-106 3 0 -30 c0 -36 22 -110
45 -156 30 -59 65 -89 103 -89 61 0 115 -23 159 -67 l43 -42 67 32 c60 28 81
32 171 35 73 3 102 8 102 17 0 7 -16 46 -37 86 -50 101 -153 203 -254 252
-109 52 -114 53 -129 16z"/>
<path d="M3530 1791 c0 -73 105 -458 134 -488 6 -7 31 -15 55 -19 42 -7 43 -6
36 17 -4 13 -37 116 -73 228 -54 170 -72 211 -100 243 -38 42 -52 47 -52 19z"/>
<path d="M2650 1721 c0 -11 4 -31 10 -45 9 -24 14 -26 75 -26 121 0 160 -35
209 -187 l27 -81 -35 -94 c-19 -51 -46 -120 -60 -153 l-24 -60 -57 -6 c-174
-19 -253 -222 -137 -351 46 -51 85 -68 157 -68 190 0 281 219 149 360 l-24 26
38 97 c20 53 41 96 46 94 4 -1 41 -93 82 -202 41 -110 79 -210 86 -222 20 -40
2 -44 558 129 107 33 201 65 208 70 28 23 7 78 -30 78 -17 0 -307 -87 -552
-166 -60 -19 -111 -33 -113 -30 -5 4 -120 311 -219 581 -63 174 -87 213 -153
249 -43 23 -60 26 -145 26 -88 0 -96 -2 -96 -19z m155 -768 c-18 -41 -28 -91
-22 -106 4 -11 18 -17 38 -17 27 0 33 5 52 50 11 28 24 50 27 50 12 0 30 -50
30 -80 0 -37 -51 -96 -90 -105 -113 -25 -187 120 -100 198 35 31 77 38 65 10z"/>
<path d="M1743 1600 c-18 -10 -41 -37 -53 -59 -56 -110 14 -231 134 -231 155
0 215 200 86 288 -43 29 -121 30 -167 2z"/>
<path d="M2408 1439 c-66 -327 -303 -562 -591 -586 -48 -4 -65 -9 -52 -14 63
-25 216 4 334 62 206 102 337 317 329 541 l-3 83 -17 -86z"/>
</g>
</svg>
